<svg width="25" height="25" viewBox="0 0 25 25" fill="none" xmlns="http://www.w3.org/2000/svg">
<path d="M21.8748 13.3229C21.7109 15.096 21.0455 16.7858 19.9563 18.1946C18.8671 19.6033 17.3992 20.6727 15.7245 21.2776C14.0497 21.8826 12.2373 21.998 10.4993 21.6105C8.76125 21.223 7.16956 20.3485 5.91043 19.0893C4.65129 17.8302 3.7768 16.2385 3.38926 14.5005C3.00173 12.7625 3.11719 10.9501 3.72213 9.27531C4.32707 7.60053 5.39647 6.13267 6.80521 5.04349C8.21394 3.95431 9.90373 3.28886 11.6769 3.125C10.6387 4.52945 10.1392 6.25984 10.2691 8.00147C10.399 9.7431 11.1496 11.3803 12.3846 12.6152C13.6195 13.8501 15.2567 14.6008 16.9983 14.7307C18.7399 14.8606 20.4703 14.361 21.8748 13.3229Z" stroke="white" stroke-width="4" stroke-linecap="round" stroke-linejoin="round"/>
</svg>
